<svg width="19" height="12" viewBox="0 0 19 12" fill="none" xmlns="http://www.w3.org/2000/svg">
<path fill-rule="evenodd" clip-rule="evenodd" d="M18.25 5.99994C18.25 5.83418 18.1842 5.67521 18.0669 5.558C17.9497 5.44079 17.7908 5.37494 17.625 5.37494L2.88375 5.37494L6.8175 1.44244C6.93486 1.32508 7.00079 1.16591 7.00079 0.999942C7.00079 0.833973 6.93486 0.6748 6.8175 0.557442C6.70014 0.440084 6.54097 0.374153 6.375 0.374153C6.20903 0.374153 6.04986 0.440084 5.9325 0.557442L0.932499 5.55744C0.874296 5.6155 0.828117 5.68447 0.79661 5.7604C0.765102 5.83633 0.748882 5.91773 0.748882 5.99994C0.748882 6.08215 0.765102 6.16355 0.79661 6.23948C0.828117 6.31542 0.874296 6.38439 0.932499 6.44244L5.9325 11.4424C6.04986 11.5598 6.20903 11.6257 6.375 11.6257C6.54097 11.6257 6.70014 11.5598 6.8175 11.4424C6.93486 11.3251 7.00079 11.1659 7.00079 10.9999C7.00079 10.834 6.93486 10.6748 6.8175 10.5574L2.88375 6.62494L17.625 6.62494C17.7908 6.62494 17.9497 6.55909 18.0669 6.44188C18.1842 6.32467 18.25 6.1657 18.25 5.99994Z" fill="#6B6B6B"/>
</svg>
