<svg width="19" height="12" viewBox="0 0 19 12" fill="none" xmlns="http://www.w3.org/2000/svg">
<path fill-rule="evenodd" clip-rule="evenodd" d="M0.5 5.62568C0.5 5.45991 0.565848 5.30094 0.683058 5.18373C0.800268 5.06652 0.95924 5.00068 1.125 5.00068L15.8663 5.00068L11.9325 1.06817C11.8151 0.950816 11.7492 0.791644 11.7492 0.625674C11.7492 0.459705 11.8151 0.300532 11.9325 0.183174C12.0499 0.0658159 12.209 -0.000114441 12.375 -0.000114441C12.541 -0.000114441 12.7001 0.0658159 12.8175 0.183174L17.8175 5.18318C17.8757 5.24123 17.9219 5.3102 17.9534 5.38613C17.9849 5.46207 18.0011 5.54347 18.0011 5.62568C18.0011 5.70788 17.9849 5.78929 17.9534 5.86522C17.9219 5.94115 17.8757 6.01012 17.8175 6.06818L12.8175 11.0682C12.7001 11.1855 12.541 11.2515 12.375 11.2515C12.209 11.2515 12.0499 11.1855 11.9325 11.0682C11.8151 10.9508 11.7492 10.7916 11.7492 10.6257C11.7492 10.4597 11.8151 10.3005 11.9325 10.1832L15.8663 6.25068L1.125 6.25068C0.95924 6.25068 0.800268 6.18483 0.683058 6.06762C0.565848 5.95041 0.5 5.79144 0.5 5.62568Z" fill="#6B6B6B"/>
</svg>
