<svg width="18" height="13" viewBox="0 0 18 13" fill="none" xmlns="http://www.w3.org/2000/svg">
<path fill-rule="evenodd" clip-rule="evenodd" d="M0 6.50019C0 6.33443 0.065848 6.17545 0.183058 6.05824C0.300268 5.94103 0.45924 5.87519 0.625 5.87519L15.3663 5.87519L11.4325 1.94269C11.3151 1.82533 11.2492 1.66616 11.2492 1.50019C11.2492 1.33422 11.3151 1.17504 11.4325 1.05769C11.5499 0.940328 11.709 0.874397 11.875 0.874397C12.041 0.874397 12.2001 0.940328 12.3175 1.05769L17.3175 6.05769C17.3757 6.11574 17.4219 6.18471 17.4534 6.26065C17.4849 6.33658 17.5011 6.41798 17.5011 6.50019C17.5011 6.5824 17.4849 6.6638 17.4534 6.73973C17.4219 6.81566 17.3757 6.88463 17.3175 6.94269L12.3175 11.9427C12.2001 12.06 12.041 12.126 11.875 12.126C11.709 12.126 11.5499 12.06 11.4325 11.9427C11.3151 11.8253 11.2492 11.6662 11.2492 11.5002C11.2492 11.3342 11.3151 11.175 11.4325 11.0577L15.3663 7.12519L0.625 7.12519C0.45924 7.12519 0.300268 7.05934 0.183058 6.94213C0.065848 6.82492 0 6.66595 0 6.50019Z" fill="#FF8686"/>
</svg>
