<svg width="18" height="18" viewBox="0 0 18 18" fill="none" xmlns="http://www.w3.org/2000/svg">
<path d="M10.1751 8.99983L17.0835 2.0915C17.22 1.93208 17.2913 1.72701 17.2832 1.51728C17.2751 1.30755 17.1882 1.10861 17.0398 0.960193C16.8914 0.811781 16.6924 0.724837 16.4827 0.716736C16.273 0.708635 16.0679 0.779974 15.9085 0.916496L9.00014 7.82483L2.09181 0.908162C1.93489 0.751243 1.72206 0.663086 1.50014 0.663086C1.27822 0.663086 1.06539 0.751243 0.908474 0.908162C0.751554 1.06508 0.663397 1.27791 0.663397 1.49983C0.663397 1.72175 0.751554 1.93458 0.908474 2.0915L7.82514 8.99983L0.908474 15.9082C0.821239 15.9829 0.750389 16.0748 0.700369 16.1782C0.65035 16.2816 0.622241 16.3942 0.617808 16.509C0.613376 16.6237 0.632713 16.7382 0.674609 16.8451C0.716504 16.952 0.780053 17.0492 0.861265 17.1304C0.942478 17.2116 1.0396 17.2751 1.14654 17.317C1.25348 17.3589 1.36792 17.3783 1.48268 17.3738C1.59745 17.3694 1.71006 17.3413 1.81345 17.2913C1.91684 17.2412 2.00877 17.1704 2.08347 17.0832L9.00014 10.1748L15.9085 17.0832C16.0679 17.2197 16.273 17.291 16.4827 17.2829C16.6924 17.2748 16.8914 17.1879 17.0398 17.0395C17.1882 16.8911 17.2751 16.6921 17.2832 16.4824C17.2913 16.2726 17.22 16.0676 17.0835 15.9082L10.1751 8.99983Z" fill="black"/>
</svg>
