<svg width="14" height="14" viewBox="0 0 14 14" fill="none" xmlns="http://www.w3.org/2000/svg">
<path d="M7.96496 6.94729L13.7219 1.19034C13.8357 1.05749 13.8951 0.886607 13.8884 0.711832C13.8816 0.537057 13.8092 0.371266 13.6855 0.247589C13.5618 0.123913 13.396 0.0514592 13.2212 0.0447084C13.0465 0.0379576 12.8756 0.0974066 12.7427 0.211175L6.98579 5.96812L1.22885 0.20423C1.09808 0.0734639 0.920726 0 0.735794 0C0.550862 0 0.373505 0.0734639 0.242739 0.20423C0.111972 0.334997 0.0385082 0.512354 0.0385082 0.697286C0.0385082 0.882218 0.111972 1.05957 0.242739 1.19034L6.00663 6.94729L0.242739 12.7042C0.170043 12.7665 0.111001 12.8431 0.0693181 12.9293C0.0276353 13.0154 0.00421159 13.1092 0.000517494 13.2049C-0.0031766 13.3005 0.0129383 13.3959 0.0478512 13.485C0.0827641 13.5741 0.135721 13.6551 0.203398 13.7227C0.271075 13.7904 0.352011 13.8434 0.441125 13.8783C0.53024 13.9132 0.62561 13.9293 0.721248 13.9256C0.816886 13.9219 0.910728 13.8985 0.996884 13.8568C1.08304 13.8151 1.15965 13.7561 1.2219 13.6834L6.98579 7.92645L12.7427 13.6834C12.8756 13.7972 13.0465 13.8566 13.2212 13.8499C13.396 13.8431 13.5618 13.7707 13.6855 13.647C13.8092 13.5233 13.8816 13.3575 13.8884 13.1827C13.8951 13.008 13.8357 12.8371 13.7219 12.7042L7.96496 6.94729Z" fill="black"/>
</svg>
