<svg width="15" height="15" viewBox="0 0 15 15" fill="none" xmlns="http://www.w3.org/2000/svg">
<path d="M8.47863 7.50002L14.2356 1.74308C14.3493 1.61023 14.4088 1.43934 14.402 1.26457C14.3953 1.08979 14.3228 0.924001 14.1992 0.800324C14.0755 0.676647 13.9097 0.604194 13.7349 0.597443C13.5601 0.590692 13.3893 0.650141 13.2564 0.763909L7.49947 6.52085L1.74252 0.756965C1.61176 0.626198 1.4344 0.552734 1.24947 0.552734C1.06453 0.552734 0.887177 0.626198 0.75641 0.756965C0.625644 0.887731 0.55218 1.06509 0.55218 1.25002C0.55218 1.43495 0.625644 1.61231 0.75641 1.74308L6.5203 7.50002L0.75641 13.257C0.683715 13.3192 0.624673 13.3958 0.58299 13.482C0.541307 13.5681 0.517883 13.662 0.514189 13.7576C0.510495 13.8533 0.52661 13.9486 0.561523 14.0377C0.596436 14.1269 0.649393 14.2078 0.71707 14.2755C0.784747 14.3431 0.865683 14.3961 0.954797 14.431C1.04391 14.4659 1.13928 14.482 1.23492 14.4784C1.33056 14.4747 1.4244 14.4512 1.51056 14.4096C1.59671 14.3679 1.67332 14.3088 1.73558 14.2361L7.49947 8.47919L13.2564 14.2361C13.3893 14.3499 13.5601 14.4093 13.7349 14.4026C13.9097 14.3958 14.0755 14.3234 14.1992 14.1997C14.3228 14.076 14.3953 13.9102 14.402 13.7355C14.4088 13.5607 14.3493 13.3898 14.2356 13.257L8.47863 7.50002Z" fill="#F34B4B"/>
</svg>
