<svg width="25" height="19" viewBox="0 0 25 19" fill="none" xmlns="http://www.w3.org/2000/svg">
<path d="M1.82292 0.125H23.1771C24.1833 0.125 25 0.941667 25 1.94792V16.5312C25 17.0147 24.8079 17.4784 24.4661 17.8202C24.1242 18.1621 23.6605 18.3542 23.1771 18.3542H1.82292C1.33945 18.3542 0.875783 18.1621 0.53392 17.8202C0.192057 17.4784 0 17.0147 0 16.5312L0 1.94792C0 0.941667 0.816667 0.125 1.82292 0.125ZM1.5625 4.72083V16.5312C1.5625 16.675 1.67917 16.7917 1.82292 16.7917H23.1771C23.2461 16.7917 23.3124 16.7642 23.3612 16.7154C23.4101 16.6666 23.4375 16.6003 23.4375 16.5312V4.72083L13.5208 11.4219C12.9042 11.8385 12.0958 11.8385 11.4792 11.4219L1.5625 4.72083ZM1.5625 1.94792V2.83542L12.3542 10.1271C12.3972 10.1562 12.448 10.1717 12.5 10.1717C12.552 10.1717 12.6028 10.1562 12.6458 10.1271L23.4375 2.83542V1.94792C23.4375 1.87885 23.4101 1.81261 23.3612 1.76377C23.3124 1.71494 23.2461 1.6875 23.1771 1.6875H1.82292C1.75385 1.6875 1.68761 1.71494 1.63877 1.76377C1.58994 1.81261 1.5625 1.87885 1.5625 1.94792Z" fill="#26373E" fill-opacity="0.5"/>
</svg>
