<svg width="20" height="20" viewBox="0 0 20 20" fill="none" xmlns="http://www.w3.org/2000/svg">
<g clip-path="url(#clip0_987_1695)">
<path d="M8.3342 14.3667L9.44531 14.9222V11.2611C9.4447 11.1154 9.38684 10.9757 9.2842 10.8722L5.6842 7.22223H14.3286L10.7342 10.8722C10.6316 10.9757 10.5737 11.1154 10.5731 11.2611L10.5564 15.5556L11.6675 16.1111V11.4889L15.3231 7.77778C15.4693 7.62943 15.5529 7.4305 15.5564 7.22223V6.66667C15.5564 6.51933 15.4979 6.37802 15.3937 6.27383C15.2895 6.16965 15.1482 6.11111 15.0009 6.11111H5.00087C4.85353 6.11111 4.71222 6.16965 4.60803 6.27383C4.50384 6.37802 4.44531 6.51933 4.44531 6.66667V7.22223C4.44887 7.4305 4.53242 7.62943 4.67865 7.77778L8.3342 11.4889V14.3667Z" fill="#F34B4B"/>
<path d="M10.0002 1.11111C8.24217 1.11111 6.52359 1.63244 5.06182 2.60916C3.60005 3.58589 2.46074 4.97414 1.78796 6.59837C1.11518 8.22261 0.93915 10.0099 1.28213 11.7341C1.62511 13.4584 2.47169 15.0423 3.71483 16.2854C4.95796 17.5285 6.54181 18.3751 8.26609 18.7181C9.99036 19.0611 11.7776 18.885 13.4019 18.2123C15.0261 17.5395 16.4143 16.4002 17.3911 14.9384C18.3678 13.4766 18.8891 11.7581 18.8891 10C18.8891 7.64252 17.9526 5.3816 16.2856 3.71461C14.6186 2.04762 12.3577 1.11111 10.0002 1.11111ZM10.0002 17.7778C8.46192 17.7778 6.95817 17.3216 5.67912 16.467C4.40007 15.6124 3.40317 14.3976 2.81449 12.9764C2.22581 11.5552 2.07178 9.99138 2.37189 8.48264C2.672 6.97389 3.41276 5.58803 4.5005 4.50028C5.58824 3.41254 6.97411 2.67178 8.48285 2.37167C9.99159 2.07157 11.5554 2.22559 12.9766 2.81427C14.3979 3.40296 15.6126 4.39985 16.4672 5.6789C17.3218 6.95795 17.778 8.4617 17.778 10C17.778 12.0628 16.9586 14.0411 15.4999 15.4997C14.0413 16.9583 12.063 17.7778 10.0002 17.7778Z" fill="#F34B4B"/>
</g>
<defs>
<clipPath id="clip0_987_1695">
<rect width="20" height="20" fill="white"/>
</clipPath>
</defs>
</svg>
