<svg width="23" height="23" viewBox="0 0 23 23" fill="none" xmlns="http://www.w3.org/2000/svg">
<path d="M0.937156 9.55313L13.4465 22.0625C13.5569 22.1727 13.6977 22.2474 13.8508 22.2769C14.004 22.3065 14.1625 22.2895 14.3059 22.2281L20.4934 19.5781C20.6106 19.5277 20.7138 19.4494 20.7937 19.3499C20.8737 19.2505 20.9281 19.1329 20.9521 19.0076C20.9762 18.8823 20.9692 18.753 20.9317 18.631C20.8942 18.509 20.8274 18.398 20.7372 18.3078L16.9809 14.55C16.865 14.434 16.7156 14.3574 16.5538 14.3311C16.392 14.3047 16.226 14.3299 16.0793 14.4031L14.3731 15.2563L7.74184 8.625L8.59653 6.91875C8.66993 6.77222 8.69539 6.60632 8.66932 6.44453C8.64324 6.28273 8.56694 6.13323 8.45122 6.01719L4.69184 2.26094C4.60152 2.17072 4.49047 2.10401 4.36839 2.06665C4.24632 2.02929 4.11696 2.02241 3.99161 2.04661C3.86627 2.07082 3.74876 2.12537 3.64938 2.2055C3.55 2.28563 3.47177 2.38889 3.42153 2.50625L0.769968 8.69375C0.708634 8.83716 0.691631 8.99565 0.721149 9.14881C0.750667 9.30196 0.825353 9.44278 0.935593 9.55313H0.937156ZM2.41372 8.82187L4.40434 4.18125L6.94809 6.72656L6.34653 7.92813L5.84341 8.93437L6.63872 9.73125L13.2684 16.3609L14.0653 17.1578L15.0715 16.6531L16.2747 16.0531L18.8184 18.5953L14.1778 20.5844L2.41372 8.82187ZM11.4997 6.8125V5.25C13.1573 5.25 14.747 5.90848 15.9191 7.08058C17.0912 8.25268 17.7497 9.8424 17.7497 11.5H16.1872C16.1872 10.2568 15.6933 9.06451 14.8142 8.18544C13.9351 7.30636 12.7429 6.8125 11.4997 6.8125ZM11.4997 2.125V0.5625C14.4005 0.5625 17.1825 1.71484 19.2336 3.76602C21.2848 5.8172 22.4372 8.59919 22.4372 11.5H20.8747C20.8747 9.0136 19.8869 6.62903 18.1288 4.87087C16.3706 3.11272 13.9861 2.125 11.4997 2.125Z" fill="#26373E" fill-opacity="0.5"/>
</svg>
