<svg width="20" height="20" viewBox="0 0 20 20" fill="none" xmlns="http://www.w3.org/2000/svg">
<path fill-rule="evenodd" clip-rule="evenodd" d="M7.38102 0.349904C9.3476 -0.184066 11.4304 -0.104484 13.3505 0.577996C15.2706 1.26048 16.9364 2.51328 18.1248 4.16865V2.1874C18.1248 1.93876 18.2235 1.70031 18.3994 1.52449C18.5752 1.34868 18.8136 1.2499 19.0623 1.2499C19.3109 1.2499 19.5494 1.34868 19.7252 1.52449C19.901 1.70031 19.9998 1.93876 19.9998 2.1874V7.4999H14.6873C14.4386 7.4999 14.2002 7.40113 14.0244 7.22532C13.8485 7.0495 13.7498 6.81104 13.7498 6.5624C13.7498 6.31376 13.8485 6.07531 14.0244 5.89949C14.2002 5.72368 14.4386 5.6249 14.6873 5.6249H16.846C15.8669 4.09301 14.4022 2.9338 12.6863 2.33269C10.9705 1.73159 9.10263 1.72335 7.38154 2.30927C5.66046 2.8952 4.18562 4.04144 3.19296 5.56463C2.20031 7.08781 1.74721 8.89991 1.90614 10.711C2.06508 12.5222 2.82686 14.2277 4.06963 15.5547C5.3124 16.8817 6.96434 17.7535 8.76117 18.0308C10.558 18.308 12.3959 17.9745 13.9808 17.0838C15.5657 16.193 16.8061 14.7964 17.5035 13.1174C17.5488 13.001 17.6169 12.8948 17.7037 12.8051C17.7906 12.7154 17.8946 12.6439 18.0094 12.5949C18.1243 12.5459 18.2478 12.5203 18.3727 12.5197C18.4976 12.5191 18.6214 12.5435 18.7367 12.5914C18.8521 12.6392 18.9567 12.7097 19.0445 12.7986C19.1322 12.8875 19.2013 12.993 19.2477 13.109C19.2941 13.2249 19.3168 13.349 19.3146 13.4739C19.3124 13.5987 19.2853 13.7219 19.2348 13.8362C18.5833 15.4043 17.5432 16.7808 16.2125 17.8357C14.8819 18.8907 13.3045 19.5894 11.629 19.866C9.95361 20.1427 8.23533 19.9881 6.63618 19.4169C5.03702 18.8456 3.60966 17.8766 2.48865 16.6011C1.36765 15.3256 0.589914 13.7856 0.228769 12.1264C-0.132376 10.4671 -0.0650372 8.74318 0.424438 7.11714C0.913914 5.4911 1.8094 4.01649 3.02649 2.83231C4.24358 1.64813 5.74218 0.793387 7.38102 0.348654V0.349904Z" fill="#6B6B6B"/>
</svg>
