<svg width="11" height="11" viewBox="0 0 11 11" fill="none" xmlns="http://www.w3.org/2000/svg">
<path d="M6.28321 5L10.3332 0.950003C10.4242 0.843724 10.4718 0.707015 10.4664 0.567195C10.461 0.427375 10.403 0.294743 10.3041 0.195801C10.2051 0.0968597 10.0725 0.038897 9.93268 0.0334963C9.79286 0.0280957 9.65616 0.0756549 9.54988 0.16667L5.49988 4.21667L1.44988 0.161114C1.3436 0.0700992 1.20689 0.0225405 1.06707 0.0279412C0.927249 0.0333418 0.794617 0.091304 0.695675 0.190245C0.596734 0.289187 0.538771 0.42182 0.53337 0.56164C0.52797 0.70146 0.575529 0.838169 0.666544 0.944447L4.71654 5L0.660988 9.05C0.602831 9.09981 0.555598 9.1611 0.522252 9.23002C0.488905 9.29895 0.470166 9.37402 0.467211 9.45053C0.464256 9.52704 0.477148 9.60334 0.505078 9.67463C0.533008 9.74592 0.575374 9.81067 0.629516 9.86481C0.683657 9.91895 0.748406 9.96132 0.819697 9.98925C0.890989 10.0172 0.967285 10.0301 1.0438 10.0271C1.12031 10.0242 1.19538 10.0054 1.2643 9.97207C1.33323 9.93873 1.39452 9.89149 1.44432 9.83334L5.49988 5.78334L9.54988 9.83334C9.65616 9.92435 9.79286 9.97191 9.93268 9.96651C10.0725 9.96111 10.2051 9.90315 10.3041 9.8042C10.403 9.70526 10.461 9.57263 10.4664 9.43281C10.4718 9.29299 10.4242 9.15628 10.3332 9.05L6.28321 5Z" fill="#8F8F8F"/>
</svg>
