<svg width="21" height="20" viewBox="0 0 21 20" fill="none" xmlns="http://www.w3.org/2000/svg">
<path d="M20.5508 18.7033C19.0635 16.1321 16.7715 14.2883 14.0967 13.4143C15.4198 12.6266 16.4477 11.4265 17.0227 9.99806C17.5977 8.56966 17.6878 6.99201 17.2794 5.5074C16.8709 4.02279 15.9864 2.71329 14.7617 1.78002C13.537 0.846754 12.0398 0.341309 10.5 0.341309C8.96026 0.341309 7.46305 0.846754 6.23834 1.78002C5.01363 2.71329 4.12913 4.02279 3.72068 5.5074C3.31223 6.99201 3.40241 8.56966 3.97737 9.99806C4.55233 11.4265 5.58028 12.6266 6.90336 13.4143C4.22855 14.2873 1.93656 16.1311 0.449254 18.7033C0.394712 18.7923 0.358535 18.8912 0.342857 18.9944C0.327178 19.0975 0.332317 19.2028 0.357969 19.3039C0.383622 19.405 0.429268 19.5 0.492215 19.5832C0.555162 19.6664 0.634135 19.7361 0.724474 19.7883C0.814813 19.8405 0.914688 19.874 1.01821 19.887C1.12173 19.8999 1.22679 19.892 1.3272 19.8637C1.42762 19.8354 1.52134 19.7873 1.60286 19.7222C1.68437 19.6571 1.75201 19.5763 1.80179 19.4846C3.64164 16.3049 6.89359 14.4065 10.5 14.4065C14.1065 14.4065 17.3584 16.3049 19.1983 19.4846C19.2481 19.5763 19.3157 19.6571 19.3972 19.7222C19.4787 19.7873 19.5725 19.8354 19.6729 19.8637C19.7733 19.892 19.8783 19.8999 19.9819 19.887C20.0854 19.874 20.1853 19.8405 20.2756 19.7883C20.3659 19.7361 20.4449 19.6664 20.5079 19.5832C20.5708 19.5 20.6164 19.405 20.6421 19.3039C20.6678 19.2028 20.6729 19.0975 20.6572 18.9944C20.6415 18.8912 20.6054 18.7923 20.5508 18.7033ZM5.03129 7.37522C5.03129 6.2936 5.35202 5.23627 5.95294 4.33694C6.55385 3.43761 7.40795 2.73667 8.40724 2.32275C9.40652 1.90883 10.5061 1.80053 11.5669 2.01155C12.6278 2.22256 13.6022 2.74341 14.367 3.50822C15.1318 4.27304 15.6527 5.24748 15.8637 6.30832C16.0747 7.36915 15.9664 8.46873 15.5525 9.46802C15.1386 10.4673 14.4376 11.3214 13.5383 11.9223C12.639 12.5232 11.5817 12.844 10.5 12.844C9.05011 12.8424 7.66001 12.2657 6.63476 11.2405C5.60951 10.2152 5.03284 8.82514 5.03129 7.37522Z" fill="#26373E" fill-opacity="0.5"/>
</svg>
