<svg width="35" height="35" viewBox="0 0 35 35" fill="none" xmlns="http://www.w3.org/2000/svg">
<path d="M22.1758 17.0489L15.6133 12.6739C15.531 12.6191 15.4355 12.5876 15.3368 12.5828C15.2381 12.578 15.1399 12.6 15.0527 12.6465C14.9653 12.692 14.8923 12.7607 14.8416 12.8452C14.7909 12.9297 14.7646 13.0265 14.7656 13.125V21.875C14.7646 21.9735 14.7909 22.0704 14.8416 22.1548C14.8923 22.2393 14.9653 22.3081 15.0527 22.3535C15.1332 22.3952 15.2219 22.4185 15.3125 22.4219C15.4205 22.4239 15.5262 22.3903 15.6133 22.3262L22.1758 17.9512C22.252 17.9032 22.3149 17.8366 22.3584 17.7577C22.402 17.6788 22.4248 17.5901 22.4248 17.5C22.4248 17.4099 22.402 17.3213 22.3584 17.2424C22.3149 17.1635 22.252 17.0969 22.1758 17.0489ZM15.8594 20.8496V14.1504L20.8906 17.5L15.8594 20.8496ZM31.5137 9.67971C31.4007 9.26286 31.1925 8.87794 30.9054 8.55527C30.6183 8.23261 30.2603 7.98102 29.8594 7.82034C25.2383 6.04299 17.8145 6.07034 17.5 6.07034C17.1855 6.07034 9.76172 6.04299 5.14062 7.82034C4.73974 7.98102 4.38166 8.23261 4.09458 8.55527C3.80751 8.87794 3.59929 9.26286 3.48633 9.67971C3.14453 11.0059 2.73438 13.4395 2.73438 17.5C2.73438 21.5606 3.14453 23.9942 3.48633 25.3203C3.59929 25.7372 3.80751 26.1221 4.09458 26.4448C4.38166 26.7674 4.73974 27.019 5.14062 27.1797C9.76172 28.9571 17.1855 28.9297 17.5 28.9297H17.5957C18.5391 28.9297 25.4707 28.875 29.8594 27.1797C30.2603 27.019 30.6183 26.7674 30.9054 26.4448C31.1925 26.1221 31.4007 25.7372 31.5137 25.3203C31.8555 23.9942 32.2656 21.5606 32.2656 17.5C32.2656 13.4395 31.8555 11.0059 31.5137 9.67971ZM30.4473 25.0469C30.3816 25.2958 30.2582 25.5257 30.0872 25.7181C29.9162 25.9104 29.7023 26.0599 29.4629 26.1543C25.0332 27.8633 17.582 27.836 17.5 27.836C17.418 27.836 9.9668 27.8633 5.53711 26.1543C5.29766 26.0599 5.08379 25.9104 4.91279 25.7181C4.74178 25.5257 4.61844 25.2958 4.55273 25.0469C4.22461 23.7754 3.82812 21.4375 3.82812 17.5C3.82812 13.5625 4.22461 11.2246 4.55273 9.95315C4.61844 9.70428 4.74178 9.47436 4.91279 9.28198C5.08379 9.0896 5.29766 8.94016 5.53711 8.84573C9.9668 7.13674 17.418 7.16409 17.5 7.16409C17.582 7.16409 25.0332 7.13674 29.4629 8.84573C29.7023 8.94016 29.9162 9.0896 30.0872 9.28198C30.2582 9.47436 30.3816 9.70428 30.4473 9.95315C30.7754 11.2246 31.1719 13.5625 31.1719 17.5C31.1719 21.4375 30.7754 23.7754 30.4473 25.0469Z" fill="black"/>
</svg>
