<svg width="13" height="313" viewBox="0 0 13 313" fill="none" xmlns="http://www.w3.org/2000/svg">
<line x1="7" y1="2.18557e-08" x2="7" y2="111" stroke="#C6C6C6" stroke-opacity="0.5"/>
<path d="M2.5 121L6.5 125L10.5 121" stroke="#C6C6C6"/>
<path d="M2.9 138.07C2.9 137.717 2.95 137.383 3.05 137.07C3.15 136.757 3.3 136.47 3.5 136.21C3.7 135.95 3.94667 135.72 4.24 135.52L4.84 136.06C4.39333 136.373 4.08 136.693 3.9 137.02C3.72 137.353 3.63 137.727 3.63 138.14C3.63 138.44 3.68 138.713 3.78 138.96C3.88 139.207 4.02 139.4 4.2 139.54C4.38 139.68 4.58667 139.75 4.82 139.75C4.97333 139.75 5.11 139.723 5.23 139.67C5.35 139.623 5.45667 139.55 5.55 139.45C5.64333 139.35 5.72667 139.227 5.8 139.08C5.87333 138.933 5.94 138.763 6 138.57C6.06 138.383 6.12 138.173 6.18 137.94C6.26 137.6 6.35333 137.3 6.46 137.04C6.57333 136.787 6.71 136.57 6.87 136.39C7.03 136.217 7.21333 136.083 7.42 135.99C7.63333 135.903 7.88333 135.86 8.17 135.86C8.44333 135.86 8.69667 135.917 8.93 136.03C9.16333 136.15 9.36333 136.313 9.53 136.52C9.70333 136.727 9.83667 136.97 9.93 137.25C10.0233 137.53 10.07 137.83 10.07 138.15C10.07 138.51 10.02 138.83 9.92 139.11C9.82667 139.397 9.68667 139.65 9.5 139.87C9.31333 140.09 9.09 140.28 8.83 140.44L8.29 139.89C8.51 139.75 8.7 139.59 8.86 139.41C9.02 139.237 9.14 139.043 9.22 138.83C9.30667 138.623 9.35 138.393 9.35 138.14C9.35 137.847 9.3 137.587 9.2 137.36C9.1 137.14 8.96 136.967 8.78 136.84C8.60667 136.713 8.40667 136.65 8.18 136.65C8.01333 136.65 7.86333 136.68 7.73 136.74C7.60333 136.8 7.49 136.893 7.39 137.02C7.29667 137.153 7.21 137.323 7.13 137.53C7.05667 137.743 6.98667 137.997 6.92 138.29C6.84 138.637 6.74333 138.947 6.63 139.22C6.51667 139.5 6.38 139.737 6.22 139.93C6.06667 140.13 5.88667 140.28 5.68 140.38C5.47333 140.487 5.23667 140.54 4.97 140.54C4.55667 140.54 4.19333 140.437 3.88 140.23C3.57333 140.023 3.33333 139.733 3.16 139.36C2.98667 138.993 2.9 138.563 2.9 138.07ZM2.9 145.714C2.9 145.214 2.98667 144.754 3.16 144.334C3.34 143.914 3.59 143.551 3.91 143.244C4.23667 142.937 4.62 142.697 5.06 142.524C5.5 142.357 5.98 142.274 6.5 142.274C7.01333 142.274 7.48333 142.357 7.91 142.524C8.34333 142.697 8.72 142.941 9.04 143.254C9.36667 143.567 9.61667 143.931 9.79 144.344C9.96333 144.757 10.05 145.211 10.05 145.704C10.05 146.031 9.99667 146.354 9.89 146.674C9.79 146.994 9.65 147.287 9.47 147.554C9.29 147.827 9.08333 148.051 8.85 148.224L8.29 147.684C8.49 147.517 8.66333 147.324 8.81 147.104C8.95667 146.891 9.07 146.664 9.15 146.424C9.23 146.184 9.27 145.944 9.27 145.704C9.27 145.331 9.2 144.981 9.06 144.654C8.92667 144.334 8.73667 144.057 8.49 143.824C8.24333 143.591 7.95 143.407 7.61 143.274C7.27 143.147 6.9 143.084 6.5 143.084C6.08667 143.084 5.70667 143.147 5.36 143.274C5.01333 143.407 4.71333 143.594 4.46 143.834C4.21333 144.081 4.02 144.367 3.88 144.694C3.74667 145.027 3.68 145.397 3.68 145.804C3.68 146.044 3.71333 146.284 3.78 146.524C3.85333 146.764 3.95333 146.984 4.08 147.184C4.20667 147.384 4.35 147.554 4.51 147.694L3.86 148.094C3.67333 147.941 3.50667 147.734 3.36 147.474C3.22 147.221 3.10667 146.941 3.02 146.634C2.94 146.327 2.9 146.021 2.9 145.714ZM3 150.272H10V153.012C10 153.418 9.90333 153.785 9.71 154.112C9.52333 154.445 9.26667 154.708 8.94 154.902C8.61333 155.095 8.24333 155.192 7.83 155.192C7.44333 155.192 7.09333 155.098 6.78 154.912C6.46667 154.725 6.21667 154.472 6.03 154.152C5.85 153.832 5.76 153.472 5.76 153.072L5.76 151.052H3V150.272ZM3 154.542L6.08 152.782L6.34 153.532L3 155.472V154.542ZM6.52 151.052L6.52 153.142C6.52 153.388 6.57667 153.605 6.69 153.792C6.80333 153.978 6.95667 154.125 7.15 154.232C7.35 154.338 7.57667 154.392 7.83 154.392C8.10333 154.392 8.34667 154.328 8.56 154.202C8.77333 154.075 8.94 153.898 9.06 153.672C9.18 153.452 9.24 153.198 9.24 152.912V151.052H6.52ZM2.9 160.366C2.9 159.872 2.98667 159.416 3.16 158.996C3.34 158.582 3.59 158.219 3.91 157.906C4.23 157.599 4.60667 157.359 5.04 157.186C5.48 157.019 5.96 156.936 6.48 156.936C7 156.936 7.47667 157.019 7.91 157.186C8.35 157.359 8.73 157.599 9.05 157.906C9.37667 158.219 9.62667 158.582 9.8 158.996C9.98 159.416 10.07 159.872 10.07 160.366C10.07 160.866 9.98 161.322 9.8 161.736C9.62667 162.156 9.37667 162.519 9.05 162.826C8.73 163.139 8.35 163.379 7.91 163.546C7.47667 163.719 7 163.806 6.48 163.806C5.96667 163.806 5.49 163.719 5.05 163.546C4.61667 163.379 4.23667 163.139 3.91 162.826C3.59 162.519 3.34 162.156 3.16 161.736C2.98667 161.322 2.9 160.866 2.9 160.366ZM3.67 160.366C3.67 160.746 3.73667 161.096 3.87 161.416C4.01 161.742 4.20667 162.022 4.46 162.256C4.71333 162.489 5.01 162.669 5.35 162.796C5.69667 162.929 6.07333 162.996 6.48 162.996C6.89333 162.996 7.27 162.929 7.61 162.796C7.95667 162.669 8.25667 162.489 8.51 162.256C8.76333 162.022 8.96 161.742 9.1 161.416C9.24 161.096 9.31 160.746 9.31 160.366C9.31 159.986 9.24 159.632 9.1 159.306C8.96 158.986 8.76333 158.709 8.51 158.476C8.25667 158.242 7.95667 158.062 7.61 157.936C7.27 157.809 6.89333 157.746 6.48 157.746C6.07333 157.746 5.69667 157.809 5.35 157.936C5.01 158.062 4.71333 158.242 4.46 158.476C4.20667 158.709 4.01 158.986 3.87 159.306C3.73667 159.632 3.67 159.986 3.67 160.366ZM3 166.027H10V166.807H3.76L3.76 170.167H3L3 166.027ZM3 172.391H10V173.171H3.76V176.531H3V172.391Z" fill="#FF8686"/>
<path d="M2.5 188L6.5 192L10.5 188" stroke="#C6C6C6"/>
<line x1="7" y1="202" x2="7" y2="313" stroke="#C6C6C6" stroke-opacity="0.5"/>
</svg>
